<svg xmlns="http://www.w3.org/2000/svg" viewBox="0 0 500 500" width="100%" height="100%">
  <defs>
    <linearGradient id="bg-grad" x1="0%" y1="0%" x2="100%" y2="100%">
      <stop offset="0%" stop-color="#0099cc" />
      <stop offset="100%" stop-color="#005b8c" />
    </linearGradient>
    
    <linearGradient id="flame-grad" x1="0%" y1="100%" x2="0%" y2="0%">
      <stop offset="0%" stop-color="#ff3300" />
      <stop offset="50%" stop-color="#ff9900" />
      <stop offset="100%" stop-color="#ffff00" />
    </linearGradient>
  </defs>

  <circle cx="250" cy="250" r="240" fill="url(#bg-grad)" />

  <text x="250" y="110" font-family="Arial, sans-serif" font-weight="bold" font-size="52" fill="#ffffff" text-anchor="middle" letter-spacing="4">FDV</text>

  <ellipse cx="250" cy="380" rx="190" ry="40" fill="none" stroke="#ffffff" stroke-width="12" opacity="0.9" />
  <ellipse cx="250" cy="380" rx="140" ry="28" fill="none" stroke="#ffffff" stroke-width="10" opacity="0.9" />
  <ellipse cx="250" cy="380" rx="90" ry="18" fill="none" stroke="#ffffff" stroke-width="8" opacity="0.9" />
  <ellipse cx="250" cy="380" rx="40" ry="9" fill="none" stroke="#ffffff" stroke-width="6" opacity="0.9" />

  <ellipse cx="250" cy="380" rx="25" ry="6" fill="url(#bg-grad)" />

  <path d="M 120 280 
           Q 190 230, 250 280 
           Q 310 230, 380 280 
           L 350 310 
           Q 290 270, 250 305 
           Q 210 270, 150 310 Z" 
        fill="#b3b3b3" stroke="#999999" stroke-width="2" stroke-linejoin="round" />
        
  <path d="M 130 290 Q 190 245, 250 292 Q 310 245, 370 290" fill="none" stroke="#e6e6e6" stroke-width="3" />
  <path d="M 140 300 Q 190 260, 250 300 Q 310 260, 360 300" fill="none" stroke="#cccccc" stroke-width="2" />

  <path d="M 250 280 
           C 220 250, 210 200, 240 140
           C 210 180, 215 220, 235 240
           C 220 210, 225 170, 250 110
           C 265 160, 285 180, 270 220
           C 285 200, 280 170, 275 160
           C 295 190, 280 250, 250 280 Z" 
        fill="url(#flame-grad)" filter="drop-shadow(0px 0px 8px rgba(255,255,0,0.6))" />
</svg>
